<svg xmlns="http://www.w3.org/2000/svg" xmlns:xlink="http://www.w3.org/1999/xlink" id="Layer_1" x="0" y="0" version="1.1" viewBox="0 0 1800 630" xml:space="preserve" style="enable-background:new 0 0 1800 630"><style type="text/css">.st0{fill:#9596ae}.st1{fill:url(#SVGID_1_)}.st2{fill:url(#SVGID_2_)}.st3{fill:#fff}.st4{fill:none;stroke:#9596ae;stroke-width:5;stroke-linecap:round;stroke-miterlimit:10}.st5{fill:#7b858e}</style><g id="Homebridge"><g id="Text"><path d="M136.2,471.8h29v-31.1H178v75.9h-12.7v-33.8h-29v33.8h-12.8v-75.9h12.8V471.8z" class="st0"/><path d="M222.8,517.6c-16.9,0-28.4-10.2-28.4-34.1v-9.7c0-23.9,11.4-34.1,28.4-34.1s28.5,10.2,28.5,34.1v9.7 C251.3,507.3,239.9,517.6,222.8,517.6z M207.2,483.5c0,16.4,5.5,23,15.6,23s15.7-6.6,15.7-23v-9.7c0-16.4-5.6-23-15.7-23 s-15.6,6.6-15.6,23V483.5z" class="st0"/><path d="M301.7,484.7l21.9-44h12.2v75.9h-12.3v-50.8l-17.4,36.2h-9L280,466.1v50.5h-12.3v-75.9h12.1L301.7,484.7z" class="st0"/><path d="M401.8,440.7v11.1H368v20h30.5v11H368v22.8h33.8v11h-46.5v-75.9L401.8,440.7z" class="st0"/><path d="M441,440.7c17.8,0,27,6.6,27,19.7c0.2,7.3-4.3,13.9-11.1,16.5c8.6,2.4,13.5,8.4,13.5,17.9 c0,11.4-7.3,21.8-27,21.8h-26.8v-75.9H441z M429.3,471.7h12.4c9.5,0,13.4-4.3,13.4-10.6c0-5.9-3-9.5-15.1-9.5h-10.7L429.3,471.7z M429.3,505.6h13.3c10.2,0,15-4.2,15-11.4c0-8-5.3-11.4-16.5-11.4h-11.8L429.3,505.6z" class="st0"/><path d="M527.7,516.6l-14.6-30.8h-14.7v30.8h-12.8v-75.9h25.9c17.5,0,27.9,7.6,27.9,22.7c0,10.5-5,17.2-13.8,20.4 l16.2,32.9H527.7z M510.6,474.8c10.8,0,16.1-2.9,16.1-11.4s-5.3-11.5-16.1-11.5h-12.2v23L510.6,474.8z" class="st0"/><path d="M569.4,516.6h-12.8v-75.9h12.8V516.6z" class="st0"/><path d="M589.9,516.6v-75.9h25.6c17,0,28.5,9.1,28.5,33.4v9c0,24.3-11.4,33.4-28.5,33.4L589.9,516.6z M631.2,483.1v-9 c0-15.6-4.8-22.3-15.7-22.3h-12.9v53.8h12.9C626.4,505.6,631.2,498.8,631.2,483.1z" class="st0"/><path d="M713.6,477.6v5.8c0,23.9-10.9,34.1-27.9,34.1s-28.4-10.2-28.4-34.1v-9.1c0-24.4,11.4-34.6,28.4-34.6 c15.4,0,25.2,8.6,27.6,24.5H701c-1.9-8.8-6.7-13.4-15.3-13.4c-10.1,0-15.6,6.6-15.6,23v9.7c0,16.4,5.5,23,15.6,23 c9.7,0,14.5-5.7,15.4-17.7H686v-11.1H713.6z" class="st0"/><path d="M776.5,440.7v11.1h-33.8v20h30.5v11h-30.5v22.8h33.8v11H730v-75.9L776.5,440.7z" class="st0"/></g><g id="Logo"><linearGradient id="SVGID_1_" x1="450" x2="450" y1="543.52" y2="243.52" gradientTransform="matrix(1 0 0 -1 0 630)" gradientUnits="userSpaceOnUse"><stop offset="0" style="stop-color:#57277c"/><stop offset="1" style="stop-color:#491f59"/></linearGradient><circle cx="450" cy="236.5" r="150" class="st1"/><radialGradient id="SVGID_2_" cx="450" cy="393.52" r="150" gradientTransform="matrix(1 0 0 -1 0 630)" gradientUnits="userSpaceOnUse"><stop offset="0" style="stop-color:#000;stop-opacity:0"/><stop offset="1" style="stop-color:#000;stop-opacity:.1"/></radialGradient><circle cx="450" cy="236.5" r="150" class="st2"/><image style="overflow:visible;opacity:.25;enable-background:new" width="255" height="258" transform="matrix(1 0 0 1 324 110.23)" xlink:href="F466E2C9E874B9CD.png"/><path d="M551.7,221.2h-0.2l-18.3-18.3c-0.6-0.7-1-1.6-1-2.5v-42.3c0-9-7.3-16.2-16.2-16.2h-11.5 c-9,0-16.2,7.3-16.2,16.2v0.2l-27.1-26.2c-6.4-6.1-16.5-6-22.8,0.2L346.8,224c-6.3,6.3-6.3,16.6,0,22.9c0,0,0,0,0,0l0,0l8.7,8.7 c6.3,6.3,16.5,6.3,22.9,0.1l70.5-69.4c1.4-1.4,3.6-1.4,5,0l69,69c1.4,1.4,1.4,3.6,0,5l-8.5,8.5c-1.4,1.4-3.6,1.4-5,0l-48.5-47 c-6.4-6.2-16.5-6.1-22.8,0.2l-46.5,46.7c-6.3,6.3-6.3,16.6,0,22.9l8.6,8.6c6.3,6.3,16.5,6.3,22.9,0.1l25.1-24.8 c1.4-1.4,3.6-1.4,5,0L478,300c1.4,1.4,1.4,3.6,0,5c0,0,0,0,0,0l-24.7,24.9c-0.1,0-0.2-0.1-0.3-0.1c-5.1,0-9.3,4.1-9.3,9.3 c0,5.1,4.1,9.3,9.3,9.3c5.1,0,9.3-4.1,9.3-9.3v-0.2l24.8-24.8c6.4-6.3,6.4-16.6,0-23c0,0,0,0,0,0L487,291l-24.9-24.5 c-6.3-6.2-16.5-6.2-22.8,0l-25.1,24.8c-1.4,1.4-3.6,1.4-5,0l-8.6-8.6c-1.4-1.4-1.4-3.6,0-5l46.5-46.7c1.4-1.4,3.6-1.4,5-0.1 l48.5,47.1c6.4,6.1,16.5,6.1,22.8-0.2l8.5-8.5c6.3-6.3,6.3-16.6,0-22.9l-69.1-69.1c-6.3-6.3-16.5-6.3-22.9-0.1l-70.5,69.4 c-1.4,1.4-3.6,1.4-5,0l-8.7-8.7c-1.4-1.4-1.4-3.6,0-5l91.7-91.7c1.4-1.4,3.6-1.4,5,0l48.6,47v-30.2c0-2,1.6-3.5,3.5-3.5H516 c2,0,3.5,1.6,3.5,3.5v42.4c0,4.3,1.7,8.5,4.8,11.5l18.2,18.2c0,0.1-0.1,0.2-0.1,0.3c0,5.1,4.2,9.3,9.3,9.2c5.1,0,9.3-4.2,9.2-9.3 C561,225.4,556.8,221.3,551.7,221.2L551.7,221.2z" class="st3"/></g></g><g id="Divider"><line x1="998" x2="902" y1="14.2" y2="614.2" class="st4"/></g><g><path d="M1698.8,242.6v-41.8h-34.3V152h-41.8v48.8h-84.3c-38.9,0-67.4,26.2-67.4,62.2c0,4.1,0.6,8.1,1.2,12.2 c-12.8-45.3-48.2-74.4-95.3-74.4c-57.5,0-101.7,44.8-105.2,105.2v-12.8c0-51.1-41.3-92.4-92.4-92.4s-92.5,41.8-92.5,93v132.5h42.4 V293.8c0-27.9,22.7-50,50-50c27.9,0,50,22.7,50,50v132.5h42.4V322.8c3.5,61,48.2,105.8,106.4,105.8c35.5,0,66.8-20.9,84.9-44.8 c13.4,28.5,38.9,44.8,70.9,44.8c37.2,0,74.4-23.8,74.4-69.2c0-27.3-15.7-49.4-44.2-62.2c-3.5-1.7-6.4-2.9-9.3-4.6h-0.6 c-3.5-1.7-6.4-2.9-9.9-4.6c-18-8.1-27.3-14.5-27.3-26.7c0-11,9.9-18.6,21.5-18.6c1.7,0,73.8,0,84.3,0v118c0,37.8,30.8,68,68,68 v-41.8c-14.5,0-26.2-11.6-26.2-26.2v-118C1681.4,242.6,1694.7,242.6,1698.8,242.6z M1376.8,242.1c33.1,0,48.8,22.7,53.5,45.9H1321 C1326.8,264.1,1347.2,242.1,1376.8,242.1z M1544.2,338c11.6,5.2,18.6,14.5,18.6,25.6c0,14.5-11,22.7-29.6,22.7 c-19.8,0-28.5-17.4-30.8-22.7l-2.9-6.4h-36.7h-34.3c-9.3,15.7-27.9,29.6-50,29.6c-39.5,0-58.7-30.8-61.6-61h160.4v-6.4 c0-12.8-1.2-24.4-3.5-35.5c4.6,13.9,15.1,28.5,37.2,38.9C1519.8,326.9,1531.4,332.7,1544.2,338z" class="st5"/></g></svg>